<svg width="113" height="28" viewBox="0 0 113 28" fill="none" xmlns="http://www.w3.org/2000/svg">
<g clip-path="url(#clip0_1_15)">
<path d="M26.4991 16.9052C24.0818 16.2616 21.994 15.7057 21.994 13.5314C22.0034 13.156 22.0882 12.7863 22.2433 12.4447C22.3985 12.103 22.6207 11.7964 22.8967 11.5432C23.1727 11.29 23.4967 11.0955 23.8494 10.9714C24.202 10.8472 24.576 10.796 24.9489 10.8208C26.9892 10.8208 27.6028 12.1444 28.1989 13.4249C28.6903 14.4846 29.1544 15.4855 30.4024 15.4855C30.6372 15.498 30.8721 15.4627 31.093 15.3815C31.3138 15.3003 31.516 15.175 31.6874 15.0132C31.8588 14.8514 31.9959 14.6563 32.0902 14.4398C32.1846 14.2234 32.2344 13.9899 32.2367 13.7535C32.2367 11.5185 29.428 9.20775 24.7298 9.20775C20.4632 9.20775 17.3686 11.4774 17.3686 14.6048C17.3686 18.7789 20.6888 19.6426 23.617 20.405C26.0162 21.0289 28.0877 21.5679 28.0877 23.7134C28.0877 25.412 26.8729 26.424 24.8377 26.424C22.5328 26.424 21.89 25.0717 21.2686 23.7637C20.7694 22.7138 20.2975 21.7221 18.9812 21.7221C17.7404 21.7221 17 22.4094 17 23.5651C17 25.7269 19.9321 27.9626 24.8377 27.9626C29.4748 27.9626 32.7138 25.7884 32.7138 22.6759C32.7138 18.56 29.4118 17.68 26.4991 16.9045V16.9052ZM57.1427 9.20775C56.8584 9.18298 56.5722 9.21977 56.3033 9.31563C56.0344 9.41149 55.7891 9.5642 55.5839 9.76345C55.3787 9.9627 55.2184 10.2039 55.1138 10.4707C55.0092 10.7375 54.9627 11.0237 54.9776 11.3101C54.9776 12.5449 55.6835 13.2819 56.431 14.0632C57.2558 14.9243 58.108 15.8161 58.108 17.4932C58.108 22.1735 55.0608 25.9425 52.5387 25.9425C52.2835 25.9537 52.0286 25.9121 51.79 25.8202C51.5514 25.7282 51.3341 25.588 51.1517 25.4081C50.6018 24.8463 50.334 23.8526 50.3567 22.4551L50.4308 10.238C50.4426 10.0861 50.4199 9.93345 50.3644 9.79163C50.3089 9.64982 50.222 9.52254 50.1104 9.41942C49.9512 9.31066 49.7698 9.23892 49.5796 9.20942C49.3894 9.17993 49.195 9.19341 49.0106 9.24891L45.405 9.98716C45.1998 10.0028 45.0073 10.0932 44.8637 10.2414C44.72 10.3896 44.6352 10.5854 44.625 10.792V10.9025C44.625 11.2696 44.8974 11.5192 45.186 11.7831C45.4407 11.9653 45.6493 12.205 45.7951 12.4831C45.9408 12.7611 46.0196 13.0696 46.0251 13.3838V18.4927C46.0251 23.1561 43.6611 25.9406 41.3757 25.9406C41.1296 25.9485 40.8846 25.9052 40.656 25.8134C40.4274 25.7217 40.22 25.5835 40.0471 25.4075C39.4907 24.8391 39.2086 23.8441 39.2313 22.527L39.3048 10.2348C39.3168 10.1036 39.2997 9.97141 39.2547 9.8477C39.2098 9.72399 39.1381 9.61185 39.0448 9.51938C38.8736 9.41562 38.6834 9.34762 38.4855 9.31944C38.2876 9.29127 38.086 9.3035 37.893 9.3554L33.9832 9.98585C33.7854 10.0108 33.6028 10.1051 33.4675 10.2523C33.3323 10.3995 33.2532 10.59 33.2442 10.7901V10.9005C33.2442 11.2677 33.5172 11.5172 33.8057 11.7812C34.0604 11.9634 34.269 12.2031 34.4146 12.4812C34.5602 12.7592 34.6389 13.0677 34.6443 13.3818V20.895C34.6443 27.3041 38.7607 27.9959 40.53 27.9959C41.7493 28.028 42.9562 27.7437 44.0343 27.1703C45.1124 26.597 46.0253 25.754 46.6849 24.7228C47.0567 25.7304 47.7399 26.5918 48.6343 27.1808C49.5286 27.7698 50.5871 28.0555 51.6548 27.9959C56.2275 27.9959 60.8562 23.6108 60.8562 15.2301C60.8562 11.5127 59.434 9.20317 57.1434 9.20317L57.1427 9.20775ZM70.9279 17.9851C69.2346 18.2526 67.5168 18.329 65.8066 18.2131C65.7414 17.667 65.7095 17.1174 65.711 16.5674C65.711 13.3237 67.481 10.9691 69.9191 10.9691C70.828 10.979 71.6985 11.3387 72.3514 11.9742C73.0044 12.6097 73.3901 13.4726 73.4291 14.3853C73.4681 17.0639 72.1844 17.7074 70.926 17.9851H70.9279ZM78.076 21.6548C77.8978 21.5905 77.7038 21.5855 77.5226 21.6406C77.3414 21.6956 77.1826 21.8078 77.0698 21.9606L77.0548 21.9841C76.2852 23.5305 74.1838 24.6104 71.9432 24.6104C69.2925 24.6104 67.2275 22.9817 66.2492 20.1332C68.0975 20.3478 69.9676 20.2782 71.795 19.9268C75.5774 19.1088 77.8361 17.0371 77.8361 14.3833C77.852 13.7664 77.7417 13.1528 77.5121 12.5804C77.2824 12.0081 76.9383 11.4892 76.501 11.056C75.2816 9.84147 73.2978 9.18357 70.9175 9.2084C65.672 9.24695 61.8643 13.1362 61.8643 18.4568C61.8643 24.1655 65.607 28.0012 71.1762 28.0012C73.121 28.0587 75.0138 27.3645 76.4646 26.0614C77.5198 25.1115 78.2342 23.8385 78.4972 22.4394V22.4323C78.525 22.274 78.4984 22.1109 78.4219 21.9697C78.3454 21.8286 78.2234 21.7177 78.076 21.6555V21.6548ZM85.9793 25.8537C85.7283 25.7058 85.5187 25.4964 85.3699 25.2451C85.2211 24.9937 85.1381 24.7087 85.1285 24.4164V0.890979C85.1344 0.741678 85.1019 0.593363 85.0343 0.460296C84.9667 0.327228 84.8662 0.213886 84.7424 0.131168C84.5642 0.0402083 84.3658 -0.00356823 84.1661 0.00397679C83.9664 0.0115218 83.7719 0.070139 83.601 0.174287L79.8804 2.0258C79.5502 2.19174 79.1764 2.37924 79.1764 2.81762V2.92738C79.1764 3.25012 79.415 3.48009 79.6906 3.74664C80.0689 4.11054 80.5395 4.02496 80.5395 4.90498V24.417C80.5362 24.7016 80.4647 24.9812 80.3311 25.2321C80.1975 25.483 80.0056 25.6978 79.7718 25.8583C79.6067 25.9637 79.4675 26.1053 79.3644 26.2723C79.2613 26.4394 79.197 26.6277 79.1764 26.8232V26.9349C79.1764 27.357 79.5352 27.6301 80.0897 27.6301H85.6888C86.2478 27.6301 86.6391 27.3439 86.6391 26.9349V26.8232C86.6391 26.3861 86.318 26.1274 85.9793 25.8537ZM94.3403 25.8537C94.0894 25.7056 93.88 25.4962 93.7313 25.2449C93.5827 24.9936 93.4997 24.7086 93.4901 24.4164V0.890979C93.4958 0.740998 93.4629 0.592063 93.3946 0.458603C93.3263 0.325143 93.2248 0.211681 93.1001 0.129208C92.9219 0.0384264 92.7237 -0.00525191 92.5241 0.0022922C92.3245 0.0098363 92.1301 0.0683542 91.9593 0.172327L88.24 2.0258C87.9105 2.19174 87.5374 2.37924 87.5374 2.81762V2.92738C87.5374 3.25012 87.7753 3.48009 88.0515 3.74664C88.4298 4.11054 88.9004 4.02496 88.9004 4.90498V24.417C88.8972 24.7017 88.8257 24.9813 88.6919 25.2323C88.5582 25.4832 88.3661 25.6979 88.1321 25.8583C87.9671 25.9638 87.828 26.1054 87.725 26.2724C87.6221 26.4395 87.5579 26.6278 87.5374 26.8232V26.9349C87.5374 27.357 87.8955 27.6301 88.4506 27.6301H94.0491C94.6087 27.6301 94.9994 27.3439 94.9994 26.9349V26.8232C94.9994 26.3861 94.6789 26.1274 94.3396 25.8537" fill="#550088"/>
</g>
<defs>
<clipPath id="clip0_1_15">
<rect width="78" height="28" fill="white" transform="translate(17)"/>
</clipPath>
</defs>
</svg>
