<svg width="35" height="40" viewBox="0 0 35 40" fill="none" xmlns="http://www.w3.org/2000/svg">
<g clip-path="url(#clip0_1_503)">
<path d="M21.3469 2.01345C28.0166 2.01345 32.1418 5.03802 32.1418 7.84085C32.1421 8.00225 32.1058 8.16167 32.0354 8.30752C31.965 8.45336 31.8624 8.58195 31.735 8.6839L27.382 12.973L25.2096 15.1086L28.0574 16.2374C29.535 16.617 30.832 17.49 31.7257 18.7064C32.6195 19.9229 33.0542 21.4069 32.9554 22.9037C32.9535 23.6531 32.7955 24.3941 32.4911 25.0813C32.1869 25.7683 31.7426 26.387 31.1858 26.8993L23.2142 34.7284C20.5077 37.0424 16.978 38.209 13.3977 37.9728C5.98551 37.9728 2.03735 34.7324 2.03735 32.395C2.0206 32.2233 2.04093 32.05 2.097 31.8865C2.15309 31.723 2.24366 31.5729 2.36281 31.4461L2.40349 31.4101L2.44418 31.3803L7.05544 26.8514L7.1368 26.7854L7.26291 26.6316L8.89019 24.6838L6.59168 23.575C5.3376 23.073 4.2797 22.1905 3.57237 21.0562C2.86504 19.922 2.54529 18.5955 2.65979 17.2701C2.66423 16.4486 2.83954 15.6365 3.17497 14.8839C3.51042 14.1311 3.99891 13.4537 4.61048 12.8931L12.5719 5.07199C13.7579 4.02045 15.1434 3.20903 16.6491 2.6842C18.1549 2.15936 19.7514 1.93144 21.3469 2.01345ZM21.3469 0.0157191C19.4767 -0.0719614 17.6076 0.20782 15.849 0.838668C14.0904 1.46951 12.4777 2.43874 11.1053 3.68956L3.17237 11.4807C2.36902 12.2255 1.72883 13.1235 1.29095 14.1196C0.853066 15.1158 0.626701 16.1891 0.625701 17.2741C0.50881 18.9718 0.933113 20.663 1.83967 22.1129C2.74624 23.5629 4.09005 24.6995 5.68446 25.365L1.00608 29.9598C0.670578 30.2711 0.40734 30.6498 0.23429 31.07C0.0612405 31.4903 -0.0175547 31.9423 0.00327151 32.395C0.00327151 36.1189 5.01322 39.9705 13.3977 39.9705C15.447 40.0962 17.5011 39.8195 19.4403 39.1565C21.3794 38.4934 23.1644 37.4574 24.691 36.1089L32.6239 28.3176C33.3704 27.6191 33.9649 26.7793 34.3715 25.8488C34.7781 24.9183 34.9884 23.9164 34.9895 22.9037C35.0849 21.0095 34.528 19.1388 33.4089 17.5931C32.2897 16.0475 30.6734 14.9169 28.8201 14.3835L33.1833 10.0963C33.5016 9.8104 33.755 9.46173 33.9268 9.07306C34.0985 8.6844 34.1847 8.26451 34.18 7.84085C34.1759 3.99521 29.3795 0.0157191 21.3469 0.0157191Z" fill="#550088"/>
<path d="M21.3469 2.01345C28.0166 2.01345 32.1418 5.03802 32.1418 7.84085C32.1421 8.00225 32.1058 8.16167 32.0354 8.30752C31.965 8.45336 31.8624 8.58195 31.735 8.6839L27.382 12.973L25.2096 15.1086L28.0574 16.2374C29.535 16.617 30.832 17.49 31.7257 18.7064C32.6195 19.9229 33.0542 21.4069 32.9554 22.9037C32.9535 23.6531 32.7955 24.3941 32.4911 25.0813C32.1869 25.7683 31.7426 26.387 31.1858 26.8993L23.2142 34.7284C20.5077 37.0424 16.978 38.209 13.3977 37.9728C5.98551 37.9728 2.03735 34.7324 2.03735 32.395C2.0206 32.2233 2.04093 32.05 2.097 31.8865C2.15309 31.723 2.24366 31.5729 2.36281 31.4461L2.40349 31.4101L2.44418 31.3803L7.05544 26.8514L7.1368 26.7854L7.26291 26.6316L8.89019 24.6838L6.59168 23.575C5.3376 23.073 4.2797 22.1905 3.57237 21.0562C2.86504 19.922 2.54529 18.5955 2.65979 17.2701C2.66423 16.4486 2.83954 15.6365 3.17497 14.8839C3.51042 14.1311 3.99891 13.4537 4.61048 12.8931L12.5719 5.07199C13.7579 4.02045 15.1434 3.20903 16.6491 2.6842C18.1549 2.15936 19.7514 1.93144 21.3469 2.01345ZM21.3469 0.0157191C19.4767 -0.0719614 17.6076 0.20782 15.849 0.838668C14.0904 1.46951 12.4777 2.43874 11.1053 3.68956L3.17237 11.4807C2.36902 12.2255 1.72883 13.1235 1.29095 14.1196C0.853066 15.1158 0.626701 16.1891 0.625701 17.2741C0.50881 18.9718 0.933113 20.663 1.83967 22.1129C2.74624 23.5629 4.09005 24.6995 5.68446 25.365L1.00608 29.9598C0.670578 30.2711 0.40734 30.6498 0.23429 31.07C0.0612405 31.4903 -0.0175547 31.9423 0.00327151 32.395C0.00327151 36.1189 5.01322 39.9705 13.3977 39.9705C15.447 40.0962 17.5011 39.8195 19.4403 39.1565C21.3794 38.4934 23.1644 37.4574 24.691 36.1089L32.6239 28.3176C33.3704 27.6191 33.9649 26.7793 34.3715 25.8488C34.7781 24.9183 34.9884 23.9164 34.9895 22.9037C35.0849 21.0095 34.528 19.1388 33.4089 17.5931C32.2897 16.0475 30.6734 14.9169 28.8201 14.3835L33.1833 10.0963C33.5016 9.8104 33.755 9.46173 33.9268 9.07306C34.0985 8.6844 34.1847 8.26451 34.18 7.84085C34.1759 3.99521 29.3795 0.0157191 21.3469 0.0157191Z" fill="url(#paint0_linear_1_503)"/>
</g>
<defs>
<linearGradient id="paint0_linear_1_503" x1="17.5" y1="-1.18052e-08" x2="17.5" y2="40" gradientUnits="userSpaceOnUse">
<stop stop-color="#5B0488"/>
<stop offset="1" stop-color="#F87282"/>
</linearGradient>
<clipPath id="clip0_1_503">
<rect width="35" height="40" fill="white"/>
</clipPath>
</defs>
</svg>
