<svg width="40" height="40" viewBox="0 0 40 40" fill="none" xmlns="http://www.w3.org/2000/svg">
<path d="M34.8302 13.3127C34.6975 13.1957 34.512 13.1256 34.3146 13.1179C34.1172 13.1101 33.9239 13.1652 33.7774 13.2712C33.6309 13.3771 33.5432 13.5252 33.5334 13.6828C33.5236 13.8405 33.5927 13.9947 33.7254 14.1117C36.5781 16.6252 38.2627 19.8449 38.497 23.2317C38.7313 26.6185 37.5012 29.9668 35.0126 32.7159C32.524 35.4649 28.928 37.4479 24.8268 38.3328C20.7256 39.2176 16.3681 38.9506 12.4841 37.5764C8.6 36.2022 5.42515 33.8044 3.49112 30.7843C1.55709 27.7642 0.981319 24.3052 1.86021 20.9866C2.73909 17.6681 5.01928 14.6913 8.31897 12.5548C11.6186 10.4183 15.7375 9.25184 19.9858 9.25066C24.2135 9.25264 28.3142 10.4047 31.6119 12.5169C31.7651 12.6159 31.9612 12.6622 32.1571 12.6457C32.353 12.6292 32.5327 12.5513 32.6567 12.429C32.7806 12.3068 32.8386 12.1502 32.818 11.9938C32.7973 11.8373 32.6997 11.6938 32.5466 11.5949C30.2964 10.1506 27.6814 9.11214 24.8812 8.55075L28.3356 5.19501C28.4301 5.10294 28.4877 4.9903 28.5009 4.87174C28.5142 4.75318 28.4824 4.63419 28.4097 4.53025L25.4396 0.303615C25.3747 0.211499 25.2802 0.134834 25.1659 0.0814811C25.0516 0.028128 24.9216 6.54018e-06 24.7892 0L15.1824 0C15.05 6.54018e-06 14.92 0.028128 14.8057 0.0814811C14.6914 0.134834 14.5969 0.211499 14.532 0.303615L11.5619 4.53185C11.4887 4.63566 11.4566 4.75473 11.4698 4.8734C11.483 4.99206 11.541 5.10474 11.636 5.19661L15.0864 8.55235C10.8488 9.40987 7.07979 11.3523 4.35614 14.0825C1.63249 16.8126 0.104203 20.1801 0.00513868 23.6696C-0.0939253 27.1591 1.24169 30.5784 3.80761 33.4043C6.37353 36.2302 10.0284 38.307 14.213 39.3169C18.3976 40.3269 22.8813 40.2143 26.9782 38.9965C31.075 37.7786 34.5593 35.5226 36.8978 32.5736C39.2363 29.6246 40.3003 26.1451 39.9269 22.6675C39.5535 19.1898 37.7633 15.9057 34.8302 13.3175V13.3127ZM23.2381 8.2775C22.4084 8.16796 21.5707 8.10071 20.7303 8.07615V5.41393H26.1901L23.2381 8.2775ZM26.4883 4.22823H21.665L24.6471 1.59797L26.4883 4.22823ZM23.112 1.18729L19.9858 3.9374L16.8596 1.18729H23.112ZM15.3245 1.59797L18.3066 4.22184H13.4833L15.3245 1.59797ZM13.7815 5.41393H19.2413V8.07615C18.4009 8.10035 17.5633 8.16706 16.7335 8.2759L13.7815 5.41393Z" fill="black"/>
<path d="M19.9859 11.7564C17.3458 11.7546 14.7496 12.2955 12.4473 13.3271C10.145 14.3587 8.21413 15.8463 6.84066 17.6465C6.74944 17.7806 6.72634 17.9376 6.77615 18.085C6.82596 18.2324 6.94486 18.3588 7.10823 18.4381C7.27159 18.5174 7.46689 18.5434 7.65367 18.5109C7.84046 18.4784 8.0044 18.3897 8.11155 18.2633C9.85039 15.9793 12.5663 14.2752 15.7569 13.4662C18.9476 12.6573 22.3973 12.7981 25.4679 13.8628C28.5386 14.9274 31.0225 16.8438 32.4605 19.2576C33.8984 21.6713 34.193 24.4192 33.2898 26.9929C32.3866 29.5667 30.3467 31.7923 27.5473 33.2581C24.7479 34.7239 21.3785 35.3308 18.062 34.9666C14.7456 34.6024 11.7065 33.2917 9.50674 31.2768C7.30702 29.262 6.09547 26.6793 6.09614 24.0064C6.09419 22.7829 6.34785 21.5678 6.84667 20.411C6.88915 20.2675 6.86333 20.1165 6.77423 19.9874C6.68512 19.8582 6.53909 19.7601 6.36448 19.7121C6.18988 19.6641 5.99916 19.6697 5.82937 19.7276C5.65958 19.7856 5.52284 19.8919 5.44569 20.0259C4.37949 22.4871 4.3205 25.1552 5.27723 27.645C6.23396 30.1347 8.15691 32.3173 10.7685 33.8777C13.38 35.438 16.545 36.2954 19.8066 36.3259C23.0682 36.3565 26.2576 35.5587 28.9143 34.0477C31.571 32.5368 33.5576 30.3908 34.5872 27.9197C35.6169 25.4485 35.6364 22.7801 34.6428 20.2995C33.6493 17.8189 31.6941 15.6546 29.0597 14.1191C26.4252 12.5835 23.2477 11.7561 19.9859 11.7564Z" fill="black"/>
</svg>
