<svg width="40" height="40" viewBox="0 0 40 40" fill="none" xmlns="http://www.w3.org/2000/svg">
<path d="M35.56 23.0156C35.5202 22.9422 35.4565 22.8743 35.3726 22.8158C35.2888 22.7573 35.1863 22.7094 35.0713 22.6749C34.9563 22.6404 34.831 22.6199 34.7027 22.6147C34.5744 22.6095 34.4457 22.6197 34.324 22.6447C34.0804 22.6989 33.8816 22.8079 33.7696 22.9487C33.6576 23.0894 33.6412 23.2507 33.724 23.3986C36.494 28.3698 37.9549 33.57 38.054 38.8115H11.062C10.8236 38.8319 10.6055 38.9032 10.4477 39.0124C10.29 39.1216 10.2031 39.2612 10.2031 39.4058C10.2031 39.5503 10.29 39.69 10.4477 39.7991C10.6055 39.9083 10.8236 39.9796 11.062 40H39.026C39.1549 39.9994 39.2824 39.9835 39.4012 39.9533C39.5199 39.9231 39.6276 39.8792 39.718 39.824C39.8085 39.7688 39.8799 39.7035 39.9283 39.6317C39.9767 39.5599 40.001 39.4832 40 39.4058C40.0039 33.8343 38.5045 28.2993 35.56 23.0156ZM39.508 7.02281C34.6102 4.01745 27.9737 2.25847 20.974 2.11044V0.584634C20.974 0.429579 20.8714 0.280875 20.6887 0.171235C20.5061 0.0615952 20.2583 0 20 0C19.7417 0 19.4939 0.0615952 19.3113 0.171235C19.1286 0.280875 19.026 0.429579 19.026 0.584634V2.11044C12.0263 2.25847 5.38978 4.01745 0.492032 7.02281C0.308805 7.13501 0.206175 7.28586 0.206175 7.44298C0.206175 7.60009 0.308805 7.75094 0.492032 7.86315C0.58163 7.91817 0.688647 7.9619 0.806795 7.99175C0.924944 8.02161 1.05184 8.03698 1.18003 8.03698C1.30822 8.03698 1.43512 8.02161 1.55327 7.99175C1.67142 7.9619 1.77843 7.91817 1.86803 7.86315C2.99163 7.17685 4.21963 6.5551 5.53602 6.006L8.95802 16.4502L8.80602 16.6351C3.02334 23.7244 0.0115928 31.5123 3.28536e-05 39.4058C-0.00102201 39.4832 0.0233349 39.5599 0.0717128 39.6317C0.120091 39.7035 0.191542 39.7688 0.281987 39.824C0.372432 39.8792 0.480099 39.9231 0.598841 39.9533C0.717582 39.9835 0.845072 39.9994 0.974031 40H7.81602C8.05439 39.9796 8.2725 39.9083 8.43029 39.7991C8.58808 39.69 8.67495 39.5503 8.67495 39.4058C8.67495 39.2612 8.58808 39.1216 8.43029 39.0124C8.2725 38.9032 8.05439 38.8319 7.81602 38.8115H1.95403C2.11345 31.304 5.05094 23.9117 10.554 17.1693L10.586 17.1297H29.426L29.458 17.1693C30.6035 18.5681 31.64 19.9983 32.564 21.455C32.6334 21.566 32.7574 21.6618 32.9195 21.7295C33.0817 21.7973 33.2744 21.8338 33.472 21.8343C33.6325 21.8343 33.7905 21.8106 33.9322 21.7654C34.0739 21.7201 34.1948 21.6546 34.2845 21.5747C34.3742 21.4948 34.4298 21.4029 34.4464 21.3071C34.4631 21.2113 34.4402 21.1145 34.38 21.0252C33.4342 19.5337 32.3731 18.0696 31.2 16.6375L31.048 16.4526L34.47 6.0084C35.7857 6.55752 37.0131 7.17927 38.136 7.86555C38.2257 7.92061 38.3329 7.96436 38.4512 7.99423C38.5696 8.0241 38.6966 8.03948 38.825 8.03948C38.9533 8.03948 39.0804 8.0241 39.1987 7.99423C39.317 7.96436 39.4242 7.92061 39.514 7.86555C39.6976 7.75277 39.7999 7.60114 39.7988 7.44344C39.7977 7.28574 39.6932 7.13464 39.508 7.02281ZM27.46 3.95918C27.0277 4.94908 26.0612 5.8251 24.7114 6.45028C23.3617 7.07547 21.7049 7.41456 20 7.41456C18.2951 7.41456 16.6383 7.07547 15.2886 6.45028C13.9388 5.8251 12.9723 4.94908 12.54 3.95918C17.4014 3.06362 22.5986 3.06362 27.46 3.95918ZM29.224 15.9412H10.778L7.30002 5.33253C8.39105 4.95382 9.52752 4.62438 10.7 4.34694C11.2258 5.4447 12.2673 6.4283 13.7 7.18007C15.4449 8.0979 17.6859 8.6039 20.006 8.6039C22.3261 8.6039 24.5671 8.0979 26.312 7.18007C27.7447 6.4283 28.7862 5.4447 29.312 4.34694C30.4845 4.62438 31.621 4.95382 32.712 5.33253L29.224 15.9412Z" fill="black"/>
</svg>
