<svg width="144" height="28" viewBox="0 0 144 28" fill="none" xmlns="http://www.w3.org/2000/svg">
<path d="M17.2356 0L0 7.0056V20.9972L4.91989 23.0006L4.88589 9.0048L17.1996 3.9998L29.5153 9.0048V22.995L34.4352 20.9972V6.993L17.2356 0Z" fill="black"/>
<path d="M19.6755 22.9979L17.2176 24.0031L14.7476 23.0063V9.00486L9.83173 11.0055L9.83973 24.9999L17.2136 28.0001L24.5954 24.9999V11.0055L19.6755 9.00486V22.9979ZM45.7049 7.09106L52.4708 19.1311H52.5268L59.1266 7.09106H61.7026V20.8811H59.9226V8.86486H59.8646C59.7726 9.08326 59.6646 9.30026 59.5666 9.51866L59.2486 10.1151C59.1306 10.3349 59.0226 10.5351 58.9366 10.7325L53.2648 20.8811H51.6488L45.9209 10.7353C45.8109 10.5561 45.7009 10.3615 45.5909 10.1487C45.4809 9.93586 45.3809 9.72866 45.2869 9.53966C45.1769 9.30726 45.0669 9.08326 44.9569 8.86486H44.9009V20.8811H43.213V7.09106H45.7049ZM66.8785 20.9399C66.3461 20.8363 65.8485 20.6597 65.4145 20.4205C65 20.1863 64.6675 19.889 64.4425 19.5511C64.1943 19.1705 64.0726 18.7555 64.0865 18.3373C64.0566 17.835 64.2166 17.3361 64.5505 16.8911C64.8565 16.5232 65.2898 16.215 65.8105 15.9951C66.3853 15.7583 67.0095 15.5859 67.6604 15.4841C68.4049 15.3637 69.1589 15.2739 69.9184 15.2153C70.6124 15.1649 71.2024 15.1089 71.6864 15.0501C72.089 15.0068 72.4834 14.9322 72.8623 14.8275C73.1283 14.7579 73.3573 14.6328 73.5183 14.4691C73.6658 14.2839 73.7351 14.0732 73.7183 13.8615V13.6683C73.7505 13.3856 73.6879 13.1015 73.5355 12.8387C73.383 12.576 73.145 12.3418 72.8403 12.1549C72.1058 11.7945 71.2174 11.6206 70.3224 11.6621C67.7998 11.6621 66.4751 12.4022 66.3485 13.8825H64.6765C64.6962 13.4452 64.8408 13.0151 65.1019 12.6177C65.3629 12.2202 65.7351 11.8634 66.1965 11.5683C67.3695 10.9315 68.8381 10.6218 70.3184 10.6989C71.6262 10.6465 72.9216 10.9017 73.9983 11.4241C74.4726 11.7159 74.8414 12.0821 75.0747 12.4929C75.3079 12.9036 75.3989 13.3472 75.3403 13.7873V19.2053C75.313 19.4327 75.3954 19.6599 75.5743 19.8507C75.661 19.9207 75.7682 19.9769 75.8886 20.0156C76.009 20.0542 76.1398 20.0744 76.2722 20.0747C76.3688 20.0742 76.4651 20.0681 76.5602 20.0565C76.6602 20.0439 76.7722 20.0229 76.9022 19.9977H76.9842V20.8657C76.8338 20.9099 76.6787 20.946 76.5202 20.9735C76.2951 21.0087 76.0649 21.0251 75.8343 21.0225C75.2976 21.0421 74.7698 20.9208 74.3543 20.6823C74.1555 20.542 73.9997 20.3748 73.8965 20.1908C73.7933 20.0069 73.7449 19.8102 73.7543 19.6127V19.4013H73.6803C73.4586 19.6126 73.2161 19.8129 72.9543 20.0005C72.6487 20.2182 72.303 20.4066 71.9263 20.5605C71.4875 20.738 71.0166 20.8736 70.5264 20.9637C69.3293 21.176 68.0743 21.1688 66.8825 20.9427L66.8785 20.9399ZM71.0604 19.8913C71.6126 19.7353 72.1191 19.5094 72.5543 19.2249C72.9314 18.9733 73.2321 18.671 73.4383 18.3361C73.6445 18.0013 73.7519 17.6407 73.7543 17.2761V15.4813C73.2343 15.6779 72.6756 15.8194 72.0963 15.9013C71.4484 15.9993 70.7764 16.08 70.0804 16.1435C69.4804 16.2079 68.9224 16.2751 68.4084 16.3451C67.9415 16.4029 67.4923 16.5166 67.0804 16.6811C66.7106 16.8321 66.4038 17.0484 66.1905 17.3083C65.9519 17.6262 65.8381 17.9827 65.8605 18.3415C65.8455 18.6413 65.9347 18.9391 66.1205 19.2095C66.2824 19.4316 66.5175 19.6236 66.8065 19.7695C67.1066 19.9167 67.4471 20.0187 67.8064 20.0691C68.201 20.1273 68.6032 20.1559 69.0064 20.1545C69.7048 20.1632 70.3988 20.0752 71.0484 19.8955L71.0604 19.8913ZM79.8882 23.6335C79.4467 23.4204 79.0746 23.1443 78.7965 22.8234C78.5183 22.5025 78.3403 22.144 78.2742 21.7715H79.9142C79.9699 22.0401 80.1208 22.2948 80.3531 22.5121C80.5854 22.7295 80.8917 22.9028 81.2441 23.0161C82.0732 23.2805 82.9773 23.4093 83.8881 23.3927C84.4917 23.428 85.0992 23.3788 85.6754 23.248C86.2516 23.1173 86.7848 22.9075 87.244 22.6311C87.6177 22.3504 87.9062 22.0196 88.0922 21.6586C88.2782 21.2977 88.3577 20.9141 88.326 20.5311V18.9491H88.244C87.7775 19.4705 87.1493 19.9116 86.406 20.2399C85.5958 20.5559 84.6768 20.7094 83.7501 20.6837C82.8818 20.6928 82.0213 20.5675 81.2301 20.3169C80.4914 20.0782 79.8361 19.7294 79.3102 19.2949C78.7607 18.8322 78.3462 18.2985 78.0902 17.7241C77.7982 17.0719 77.6551 16.3915 77.6662 15.7081C77.6472 14.9771 77.813 14.2496 78.1562 13.5591C78.4447 12.9801 78.8917 12.4461 79.4722 11.9869C80.0071 11.5702 80.6668 11.2413 81.4041 11.0237C82.1449 10.8059 82.9406 10.6945 83.7441 10.6961C84.6936 10.6696 85.6341 10.8343 86.454 11.1707C87.1797 11.4966 87.7887 11.9349 88.234 12.4517H88.318V10.9117H89.9979V20.4961C90.0617 21.4747 89.5912 22.4337 88.682 23.1785C88.0551 23.5981 87.3097 23.9213 86.4938 24.1272C85.6778 24.3331 84.8093 24.4172 83.9441 24.3741C82.5132 24.4369 81.0914 24.1763 79.8882 23.6307V23.6335ZM87.314 18.5907C88.115 17.7336 88.5091 16.7213 88.44 15.6983C88.4473 15.1519 88.3552 14.6071 88.166 14.0771C88.0056 13.6213 87.7158 13.1928 87.314 12.8171C86.9359 12.467 86.4426 12.186 85.876 11.9981C85.2447 11.7958 84.5562 11.6963 83.8621 11.7069C83.2292 11.6867 82.599 11.7764 82.0277 11.9682C81.4564 12.16 80.9619 12.4477 80.5881 12.8059C79.7564 13.6689 79.3479 14.6978 79.4242 15.7375C79.4181 16.2676 79.5102 16.7961 79.6982 17.3097C79.8598 17.7589 80.1377 18.1836 80.5181 18.5627C80.874 18.9109 81.3428 19.1949 81.8861 19.3915C82.4904 19.6005 83.1583 19.7033 83.8321 19.6911C84.497 19.7258 85.1637 19.6433 85.7713 19.451C86.3789 19.2588 86.9079 18.963 87.31 18.5907H87.314ZM95.8858 20.7383C95.0876 20.4863 94.3813 20.111 93.8199 19.6407C93.2472 19.1496 92.8153 18.5859 92.5479 17.9803C92.2472 17.3095 92.0987 16.6099 92.1079 15.9069C92.0987 15.2025 92.2561 14.5019 92.5739 13.8335C92.8579 13.2312 93.2979 12.6708 93.8718 12.1801C94.4234 11.7129 95.116 11.337 95.8998 11.0797C96.7364 10.8099 97.6488 10.675 98.5697 10.6849C99.5632 10.6625 100.548 10.8181 101.432 11.1371C102.192 11.4295 102.84 11.8459 103.322 12.3509C103.818 12.8828 104.167 13.4756 104.35 14.0981C104.551 14.7636 104.652 15.4421 104.65 16.1225H93.8499C93.8609 16.6546 93.9767 17.1832 94.1938 17.6933C94.3841 18.1477 94.6896 18.5745 95.0958 18.9533C95.4908 19.3153 96.0028 19.6065 96.5898 19.8031C97.2507 20.018 97.9732 20.1239 98.7017 20.1125C99.6955 20.1571 100.677 19.9399 101.454 19.5035C102.131 19.0659 102.611 18.4996 102.836 17.8739H104.482C104.234 18.7937 103.559 19.6304 102.562 20.2539C101.476 20.8728 100.101 21.1885 98.7017 21.1401C97.7309 21.1533 96.7675 21.019 95.8778 20.7467L95.8858 20.7383ZM102.562 13.8027C102.396 13.398 102.125 13.0183 101.762 12.6827C101.412 12.3665 100.961 12.112 100.446 11.9393C99.8529 11.7508 99.2067 11.6589 98.5557 11.6705C97.8998 11.6598 97.2487 11.7517 96.6498 11.9393C96.1075 12.1122 95.6256 12.3659 95.2378 12.6827C94.8436 13.0131 94.5337 13.3887 94.3218 13.7929C94.0857 14.2401 93.9338 14.707 93.8699 15.1817H102.856C102.842 14.7148 102.741 14.2512 102.556 13.8027H102.562ZM108.458 10.9103V12.4335H108.514C108.999 11.926 109.64 11.5008 110.389 11.1889C111.26 10.8431 112.251 10.6726 113.251 10.6961C114.44 10.6648 115.601 10.951 116.499 11.4969C116.939 11.793 117.281 12.1528 117.501 12.5511C117.721 12.9494 117.814 13.3766 117.773 13.8027V20.8853H116.075V13.9189C116.113 13.6135 116.055 13.306 115.906 13.0178C115.757 12.7296 115.52 12.4676 115.211 12.2501C114.543 11.8729 113.697 11.6842 112.839 11.7209C112.259 11.7181 111.684 11.7908 111.141 11.9351C110.627 12.0678 110.152 12.2667 109.742 12.5217C109.331 12.7761 109.004 13.0893 108.781 13.44C108.559 13.7907 108.446 14.1707 108.452 14.5545V20.8853H106.758V10.9103H108.458ZM122.153 20.5451C121.888 20.37 121.683 20.1546 121.555 19.9156C121.427 19.6765 121.38 19.4201 121.415 19.1661V11.9001H119.279V10.9201H121.415V7.84006H123.113V10.9103H125.745V11.8903H123.113V18.9687C123.09 19.1026 123.109 19.2384 123.169 19.3668C123.228 19.4951 123.327 19.6129 123.457 19.7121C123.754 19.8612 124.117 19.9325 124.481 19.9137C124.689 19.9134 124.896 19.897 125.099 19.8647C125.273 19.8401 125.443 19.8045 125.607 19.7583H125.689V20.7789C125.186 20.8991 124.657 20.9582 124.125 20.9539C123.418 20.9781 122.721 20.8296 122.153 20.5339V20.5451ZM130.769 20.7383C129.972 20.4824 129.267 20.1061 128.703 19.6365C128.12 19.1485 127.677 18.5861 127.399 17.9803C126.799 16.6299 126.799 15.1838 127.399 13.8335C127.679 13.2291 128.122 12.6678 128.703 12.1801C129.267 11.7108 129.973 11.335 130.769 11.0797C131.635 10.8089 132.575 10.6741 133.523 10.6849C134.467 10.6734 135.402 10.8082 136.263 11.0797C137.054 11.3369 137.755 11.7125 138.317 12.1801C138.896 12.6662 139.331 13.2283 139.597 13.8335C139.893 14.5049 140.041 15.2041 140.035 15.9069C140.044 16.6097 139.896 17.3093 139.597 17.9803C139.327 18.5859 138.89 19.1486 138.311 19.6365C137.75 20.1044 137.048 20.4805 136.257 20.7383C135.396 21.0096 134.461 21.1439 133.517 21.1317C132.569 21.1433 131.629 21.009 130.763 20.7383H130.769ZM135.601 19.8017C136.198 19.5873 136.714 19.2775 137.107 18.8973C137.525 18.4896 137.832 18.031 138.011 17.5449C138.413 16.4705 138.413 15.3418 138.011 14.2675C137.832 13.7818 137.525 13.3237 137.107 12.9165C136.714 12.5359 136.198 12.2255 135.601 12.0107C134.956 11.7839 134.242 11.6718 133.521 11.6845C132.795 11.6769 132.076 11.7886 131.423 12.0107C130.83 12.2293 130.315 12.5389 129.917 12.9165C129.492 13.322 129.181 13.7805 129.001 14.2675C128.599 15.3418 128.599 16.4705 129.001 17.5449C129.182 18.032 129.493 18.4908 129.917 18.8973C130.327 19.2934 130.87 19.6129 131.497 19.8277C132.125 20.0426 132.819 20.1461 133.517 20.1293C134.238 20.1426 134.953 20.0301 135.597 19.8017H135.601ZM142.213 12.5679C141.972 12.5747 141.732 12.546 141.508 12.4836C141.284 12.4212 141.082 12.3265 140.913 12.2057C140.745 12.0848 140.616 11.9406 140.532 11.7823C140.449 11.6239 140.415 11.4552 140.431 11.2869C140.423 11.1194 140.463 10.9526 140.549 10.7963C140.635 10.64 140.765 10.4973 140.931 10.3769C141.098 10.2565 141.297 10.1608 141.517 10.0954C141.738 10.03 141.974 9.99626 142.214 9.99626C142.453 9.99626 142.69 10.03 142.91 10.0954C143.131 10.1608 143.33 10.2565 143.496 10.3769C143.663 10.4973 143.793 10.64 143.879 10.7963C143.965 10.9526 144.005 11.1194 143.997 11.2869C144.011 11.455 143.976 11.6235 143.892 11.7814C143.808 11.9393 143.678 12.0832 143.51 12.2038C143.342 12.3244 143.14 12.4191 142.916 12.4818C142.693 12.5445 142.453 12.5738 142.213 12.5679ZM142.213 10.1459C142.002 10.1419 141.793 10.1692 141.599 10.2259C141.405 10.2825 141.23 10.3673 141.086 10.4747C140.941 10.5821 140.831 10.7096 140.763 10.8488C140.694 10.9881 140.668 11.1359 140.687 11.2827C140.674 11.4289 140.704 11.5754 140.774 11.7132C140.845 11.851 140.956 11.9772 141.099 12.0839C141.242 12.1907 141.415 12.2758 141.607 12.334C141.799 12.3921 142.007 12.4221 142.216 12.4221C142.425 12.4221 142.632 12.3921 142.824 12.334C143.016 12.2758 143.189 12.1907 143.332 12.0839C143.476 11.9772 143.586 11.851 143.657 11.7132C143.728 11.5754 143.758 11.4289 143.745 11.2827C143.762 11.1357 143.735 10.9879 143.666 10.8488C143.596 10.7096 143.486 10.5823 143.341 10.475C143.197 10.3678 143.021 10.2831 142.827 10.2263C142.633 10.1696 142.423 10.1422 142.213 10.1459ZM142.737 11.9659L142.137 11.3569H141.937V11.9449H141.597V10.5253H142.197C142.619 10.5253 142.901 10.6751 142.901 10.9453C142.908 11.0326 142.873 11.1192 142.8 11.1903C142.727 11.2615 142.621 11.3129 142.501 11.3359L143.083 11.9169L142.737 11.9659ZM142.207 10.7451H141.939V11.1651H142.197C142.423 11.1651 142.565 11.0979 142.565 10.9537C142.565 10.8095 142.439 10.7423 142.213 10.7423" fill="black"/>
</svg>
