<svg width="144" height="24" viewBox="0 0 144 24" fill="none" xmlns="http://www.w3.org/2000/svg">
<path fill-rule="evenodd" clip-rule="evenodd" d="M42.1298 14.2797C41.8213 13.9649 41.418 13.7079 40.952 13.5292C40.486 13.3504 39.9701 13.2548 39.4455 13.25C38.9444 13.2457 38.4473 13.3177 37.9852 13.4616C37.523 13.6054 37.1055 13.818 36.7586 14.0863C36.4116 14.3545 36.1425 14.6727 35.9679 15.0212C35.7934 15.3696 35.717 15.7409 35.7436 16.1121C35.717 16.4833 35.7934 16.8546 35.9679 17.2031C36.1425 17.5515 36.4116 17.8697 36.7586 18.138C37.1055 18.4062 37.523 18.6189 37.9852 18.7627C38.4473 18.9065 38.9444 18.9785 39.4455 18.9742C40.3299 18.9708 41.1872 18.7477 41.8806 18.3406C41.8965 18.33 41.9092 18.3171 41.9179 18.3026C41.9265 18.2881 41.9309 18.2724 41.9308 18.2566V17.3638C41.9303 17.3369 41.9157 17.3113 41.8899 17.2924C41.8642 17.2735 41.8294 17.263 41.7932 17.263H39.0265C38.9743 17.2623 38.9245 17.2465 38.8878 17.2189C38.8512 17.1913 38.8307 17.1541 38.8307 17.1154V15.7953C38.8307 15.7759 38.8358 15.7567 38.8459 15.7388C38.8559 15.7209 38.8705 15.7046 38.889 15.6909C38.9075 15.6772 38.9294 15.6664 38.9536 15.6589C38.9777 15.6515 39.0036 15.6477 39.0297 15.6477H43.9905V13.6796L42.3887 14.3289C42.3448 14.3452 42.2944 14.3491 42.2468 14.3401C42.1993 14.3311 42.1577 14.3096 42.1298 14.2797ZM18.8469 15.2097H21.8014C21.9753 15.2267 22.1521 15.2156 22.3197 15.1771C22.4874 15.1387 22.6418 15.0738 22.7724 14.9869C22.903 14.9001 23.0068 14.7933 23.0766 14.6739C23.1464 14.5545 23.1805 14.4254 23.1767 14.2953C23.1776 14.1658 23.1415 14.0377 23.0707 13.9193C23 13.801 22.8962 13.6951 22.7662 13.6087C22.6362 13.5223 22.4831 13.4573 22.3167 13.418C22.1504 13.3787 21.9748 13.3661 21.8014 13.3808H18.8469C18.7984 13.3808 18.7519 13.3951 18.7176 13.4205C18.6833 13.446 18.6641 13.4805 18.6641 13.5164V15.0765C18.6645 15.1122 18.684 15.1464 18.7182 15.1716C18.7524 15.1968 18.7987 15.2109 18.8469 15.2109V15.2097ZM30.8589 20.3423C30.8589 20.358 30.8547 20.3736 30.8466 20.3882C30.8384 20.4028 30.8265 20.416 30.8115 20.4271C30.7965 20.4383 30.7786 20.4471 30.759 20.4531C30.7394 20.4592 30.7183 20.4623 30.6971 20.4623H28.5193C28.498 20.4623 28.477 20.4592 28.4573 20.4531C28.4377 20.4471 28.4199 20.4383 28.4049 20.4271C28.3898 20.416 28.3779 20.4028 28.3698 20.3882C28.3616 20.3736 28.3575 20.358 28.3575 20.3423V11.87C28.3575 11.8381 28.3745 11.8076 28.4049 11.7851C28.4352 11.7626 28.4763 11.75 28.5193 11.75H30.6938C30.7367 11.75 30.7779 11.7626 30.8082 11.7851C30.8386 11.8076 30.8556 11.8381 30.8556 11.87L30.8589 20.3423ZM43.3611 0.055562L21.7917 11.7488H22.3482C22.7717 11.7129 23.2005 11.7435 23.607 11.8385C24.0134 11.9336 24.3884 12.0909 24.7076 12.3004C25.0268 12.5098 25.283 12.7667 25.4597 13.0543C25.6363 13.342 25.7295 13.654 25.7331 13.97C25.7549 14.3555 25.6252 14.7373 25.3598 15.069C25.0944 15.4007 24.7046 15.6681 24.2381 15.8385C24.2074 15.8496 24.1817 15.867 24.164 15.8886C24.1463 15.9102 24.1373 15.9352 24.1382 15.9604C24.139 15.9857 24.1497 16.0103 24.1688 16.0312C24.188 16.0522 24.2148 16.0686 24.2461 16.0785C24.7677 16.2528 25.2085 16.5372 25.5135 16.8962C25.8185 17.2552 25.9742 17.6728 25.9612 18.097C25.9779 18.4257 25.899 18.7533 25.7299 19.0574C25.5608 19.3615 25.3054 19.635 24.981 19.8594C24.6567 20.0838 24.271 20.2538 23.8502 20.3578C23.4294 20.4619 22.9834 20.4975 22.5424 20.4623H16.3407C16.2923 20.462 16.246 20.4476 16.2118 20.4222C16.1776 20.3968 16.1582 20.3625 16.1578 20.3267V14.8005L0.160762 23.4732C0.0939745 23.5095 0.0443447 23.5605 0.0189489 23.619C-0.00644702 23.6774 -0.00631243 23.7403 0.0193334 23.7987C0.0449793 23.8571 0.0948272 23.908 0.16177 23.9441C0.228712 23.9803 0.309332 23.9998 0.392135 24H43.5924C43.6967 24 43.7967 23.9693 43.8705 23.9146C43.9442 23.8599 43.9856 23.7857 43.9856 23.7084V19.3198C42.7562 20.1735 41.1278 20.6395 39.4439 20.6195C38.6258 20.65 37.808 20.5555 37.0412 20.3418C36.2745 20.1281 35.5751 19.7997 34.9866 19.3772C34.398 18.9546 33.9329 18.4469 33.62 17.8854C33.3071 17.3239 33.1532 16.7208 33.1677 16.1133C33.151 15.5052 33.3035 14.9011 33.6157 14.3387C33.9279 13.7763 34.3931 13.2677 34.9822 12.8446C35.5714 12.4215 36.2718 12.093 37.0397 11.8797C37.8076 11.6664 38.6266 11.5728 39.4455 11.6048C40.3222 11.585 41.1925 11.7218 41.9829 12.0038C42.7733 12.2857 43.4608 12.7045 43.9872 13.2248V0.29077C43.9867 0.236996 43.9663 0.184364 43.9281 0.138645C43.8899 0.0929267 43.8355 0.0558881 43.7708 0.0315914C43.7061 0.00729467 43.6337 -0.00332166 43.5614 0.000906695C43.4891 0.00513505 43.4198 0.0240448 43.3611 0.055562ZM18.8469 18.8314H21.9082C22.8417 18.8314 23.4048 18.4714 23.4048 17.8378C23.4056 17.697 23.3661 17.5577 23.289 17.4291C23.212 17.3004 23.099 17.1854 22.9576 17.0915C22.8161 16.9976 22.6495 16.927 22.4686 16.8844C22.2877 16.8417 22.0967 16.828 21.9082 16.8441H18.8469C18.7983 16.8445 18.7518 16.859 18.7175 16.8846C18.6833 16.9103 18.6641 16.9449 18.6641 16.981V18.6958C18.6645 18.7317 18.6839 18.766 18.7181 18.7914C18.7523 18.8167 18.7986 18.8311 18.8469 18.8314ZM56.5234 18.5662L55.1724 18.0478C55.1293 18.0326 55.0802 18.0295 55.0343 18.0392C54.9885 18.049 54.9489 18.0708 54.9232 18.1006C54.626 18.4469 54.2181 18.7335 53.7357 18.9348C53.2534 19.1362 52.7115 19.2462 52.1581 19.255C51.6178 19.2498 51.0847 19.1628 50.5913 18.9995C50.0979 18.8362 49.6546 18.5999 49.2885 18.3052C48.9224 18.0104 48.6413 17.6634 48.4623 17.2852C48.2833 16.9071 48.2102 16.5059 48.2474 16.1061C48.208 15.7059 48.2797 15.3039 48.4582 14.9251C48.6366 14.5463 48.918 14.1986 49.2849 13.9037C49.6517 13.6087 50.0963 13.3728 50.5911 13.2104C51.0858 13.048 51.6203 12.9627 52.1613 12.9596C52.7149 12.9663 53.2576 13.0751 53.7404 13.2762C54.2231 13.4773 54.6307 13.7645 54.9265 14.1117C54.9517 14.1422 54.9916 14.1645 55.0382 14.1741C55.0847 14.1836 55.1344 14.1798 55.1772 14.1633L56.5153 13.6232C56.5395 13.6138 56.5609 13.6007 56.578 13.5849C56.5951 13.569 56.6076 13.5507 56.6147 13.5311C56.6219 13.5115 56.6235 13.4911 56.6194 13.471C56.6154 13.4509 56.6059 13.4316 56.5914 13.4144C56.135 12.8487 55.4846 12.3828 54.7064 12.0643C53.9281 11.7457 53.0499 11.5859 52.1613 11.6012C51.3635 11.5865 50.5702 11.6939 49.8308 11.9165C49.0914 12.1392 48.4217 12.4724 47.8635 12.8953C47.3052 13.3182 46.8704 13.8219 46.5859 14.3749C46.3015 14.9279 46.1737 15.5185 46.2104 16.1097C46.1754 16.7007 46.3044 17.2907 46.5894 17.8431C46.8744 18.3956 47.3093 18.8987 47.8672 19.3214C48.4252 19.7441 49.0942 20.0773 49.8328 20.3004C50.5715 20.5235 51.364 20.6317 52.1613 20.6183C53.0531 20.6266 53.9323 20.4614 54.7112 20.1393C55.4902 19.8171 56.1418 19.3492 56.6011 18.7822C56.6175 18.7648 56.6285 18.7448 56.6335 18.7239C56.6385 18.7029 56.6372 18.6814 56.6298 18.6609C56.6224 18.6403 56.6091 18.6212 56.5907 18.6048C56.5723 18.5885 56.5494 18.5753 56.5234 18.5662ZM63.552 19.255C63.0187 19.2482 62.4932 19.1592 62.0088 18.9937C61.5243 18.8283 61.0915 18.5899 60.7378 18.2939C60.3841 17.9978 60.1172 17.6504 59.9541 17.2738C59.791 16.8972 59.7351 16.4996 59.7901 16.1061C59.7247 15.7111 59.7731 15.3102 59.9321 14.9301C60.0912 14.5499 60.3574 14.1992 60.7129 13.9011C61.0685 13.6029 61.5054 13.3642 61.9947 13.2007C62.484 13.0372 63.0145 12.9527 63.5512 12.9527C64.0878 12.9527 64.6183 13.0372 65.1076 13.2007C65.5969 13.3642 66.0338 13.6029 66.3894 13.9011C66.7449 14.1992 67.0111 14.5499 67.1702 14.9301C67.3292 15.3102 67.3776 15.7111 67.3122 16.1061C67.3657 16.4993 67.3088 16.8964 67.1452 17.2724C66.9816 17.6485 66.7148 17.9953 66.3616 18.2912C66.0083 18.587 65.5763 18.8253 65.0928 18.9912C64.6092 19.1571 64.0846 19.2469 63.552 19.255ZM61.9453 11.75C60.6837 12.0159 59.5814 12.5918 58.8188 13.3832C58.0563 14.1747 57.6788 15.1347 57.7482 16.1061C57.701 16.6901 57.8166 17.275 58.088 17.8243C58.3593 18.3736 58.7805 18.8755 59.3251 19.2986C59.8698 19.7218 60.5263 20.057 61.2536 20.2835C61.9808 20.5099 62.7633 20.6227 63.552 20.6147C64.8923 20.6373 66.1995 20.304 67.2378 19.675C68.2761 19.0459 68.9773 18.1624 69.2149 17.1838C69.4542 16.4382 69.4332 15.6597 69.1537 14.9219C68.8742 14.1841 68.3455 13.5113 67.6177 12.9673C66.8899 12.4233 65.987 12.026 64.9944 11.813C64.0018 11.5999 62.9523 11.5783 61.9453 11.75ZM83.4743 11.7416H80.8984C80.8425 11.7414 80.7878 11.7538 80.7416 11.7772C80.6954 11.8005 80.6598 11.8337 80.6395 11.8724L77.5184 17.8534L74.3795 11.8712C74.3588 11.8328 74.3231 11.8 74.2769 11.7769C74.2308 11.7538 74.1763 11.7415 74.1207 11.7416H71.5351C71.4986 11.7416 71.4637 11.7523 71.4379 11.7714C71.4121 11.7906 71.3976 11.8165 71.3976 11.8436V20.3555C71.3976 20.3825 71.4121 20.4085 71.4379 20.4276C71.4637 20.4467 71.4986 20.4575 71.5351 20.4575H73.3149C73.3514 20.4575 73.3864 20.4467 73.4122 20.4276C73.438 20.4085 73.4524 20.3825 73.4524 20.3555V13.7276L77.0411 20.4119C77.0488 20.4254 77.0616 20.4369 77.078 20.445C77.0944 20.4531 77.1136 20.4574 77.1334 20.4575H77.8809C77.9006 20.4574 77.9198 20.4531 77.9362 20.445C77.9527 20.4369 77.9655 20.4254 77.9731 20.4119L81.5456 13.7276V20.3555C81.5456 20.3825 81.5601 20.4085 81.5859 20.4276C81.6117 20.4467 81.6467 20.4575 81.6832 20.4575H83.4629C83.4994 20.4575 83.5344 20.4467 83.5602 20.4276C83.586 20.4085 83.6005 20.3825 83.6005 20.3555V11.8436C83.6006 11.8179 83.5877 11.7932 83.5643 11.7743C83.5409 11.7554 83.5087 11.7437 83.4743 11.7416ZM109.847 11.7416H102.219C102.191 11.7414 102.163 11.7454 102.137 11.7532C102.111 11.761 102.088 11.7726 102.068 11.7872C102.048 11.8018 102.032 11.8192 102.021 11.8383C102.011 11.8575 102.005 11.878 102.005 11.8988V20.2991C102.006 20.3409 102.028 20.3809 102.068 20.4103C102.108 20.4398 102.162 20.4563 102.219 20.4563H109.849C109.905 20.4563 109.959 20.4397 109.999 20.4102C110.039 20.3807 110.061 20.3408 110.061 20.2991V19.2682C110.061 19.2265 110.039 19.1866 109.999 19.1571C109.959 19.1276 109.905 19.111 109.849 19.111H104.28C104.224 19.1107 104.17 19.0939 104.13 19.0642C104.09 19.0345 104.068 18.9944 104.068 18.9526V16.8381C104.068 16.7965 104.09 16.7565 104.13 16.727C104.17 16.6975 104.224 16.6809 104.28 16.6809H109.725C109.781 16.6809 109.835 16.6644 109.875 16.635C109.915 16.6055 109.938 16.5655 109.938 16.5237V15.4929C109.938 15.4509 109.916 15.4106 109.876 15.3809C109.835 15.3512 109.781 15.3345 109.725 15.3345H104.28C104.224 15.3345 104.17 15.3179 104.13 15.2885C104.09 15.259 104.068 15.219 104.068 15.1773V13.2452C104.068 13.2034 104.09 13.1633 104.13 13.1336C104.17 13.104 104.224 13.0871 104.28 13.0868H109.849C109.905 13.0868 109.959 13.0703 109.999 13.0408C110.039 13.0113 110.061 12.9713 110.061 12.9296V11.8988C110.061 11.8571 110.039 11.8171 109.999 11.7876C109.959 11.7581 109.905 11.7416 109.849 11.7416H109.847ZM117.891 15.8577H115.265C115.209 15.8577 115.155 15.8413 115.116 15.812C115.076 15.7828 115.054 15.7431 115.054 15.7017V13.2428C115.054 13.2014 115.076 13.1618 115.116 13.1325C115.155 13.1033 115.209 13.0868 115.265 13.0868H117.892C118.15 13.0719 118.409 13.0967 118.653 13.1596C118.897 13.2225 119.12 13.3221 119.31 13.4522C119.5 13.5823 119.651 13.7401 119.754 13.9156C119.858 14.0912 119.911 14.2807 119.911 14.4723C119.911 14.6639 119.858 14.8534 119.754 15.0289C119.651 15.2045 119.5 15.3622 119.31 15.4924C119.12 15.6225 118.897 15.7221 118.653 15.785C118.409 15.8478 118.15 15.8726 117.892 15.8577H117.891ZM119.508 16.9882C120.257 16.8508 120.917 16.5238 121.375 16.0636C121.832 15.6034 122.059 15.039 122.015 14.4681C122.032 14.0946 121.942 13.7226 121.752 13.3766C121.562 13.0306 121.275 12.7184 120.91 12.4604C120.546 12.2025 120.112 12.0047 119.637 11.8799C119.162 11.7552 118.656 11.7064 118.154 11.7368H113.203C113.147 11.7368 113.094 11.7532 113.054 11.7824C113.014 11.8116 112.992 11.8513 112.991 11.8928V20.2931C112.992 20.3346 113.014 20.3742 113.054 20.4035C113.094 20.4327 113.147 20.4491 113.203 20.4491H114.844C114.9 20.4491 114.953 20.4326 114.993 20.4034C115.032 20.3741 115.054 20.3344 115.054 20.2931V17.3602C115.054 17.3188 115.076 17.2791 115.116 17.2499C115.155 17.2206 115.209 17.2042 115.265 17.2042H116.996C117.032 17.2041 117.069 17.211 117.101 17.2242C117.133 17.2375 117.159 17.2566 117.179 17.2798L119.646 20.3807C119.665 20.4042 119.691 20.4237 119.724 20.4372C119.756 20.4507 119.792 20.4577 119.829 20.4575H121.725C121.763 20.458 121.801 20.4508 121.834 20.4366C121.866 20.4225 121.893 20.402 121.912 20.3773C121.93 20.3526 121.939 20.3247 121.937 20.2965C121.936 20.2683 121.924 20.241 121.903 20.2175C121.359 19.5718 119.864 17.8018 119.374 17.2174C119.358 17.1963 119.348 17.1726 119.346 17.1482C119.344 17.1238 119.35 17.0994 119.363 17.0771C119.377 17.0547 119.397 17.035 119.422 17.0196C119.448 17.0041 119.478 16.9934 119.51 16.9882H119.508ZM138.212 13.0868H143.791C143.819 13.087 143.846 13.0831 143.871 13.0755C143.896 13.0678 143.919 13.0565 143.939 13.0423C143.958 13.028 143.974 13.011 143.984 12.9923C143.995 12.9736 144 12.9535 144 12.9332V11.8952C144 11.8544 143.978 11.8154 143.939 11.7866C143.9 11.7578 143.848 11.7416 143.793 11.7416H136.151C136.096 11.7416 136.044 11.7578 136.005 11.7866C135.966 11.8154 135.944 11.8544 135.944 11.8952V20.3039C135.944 20.3446 135.966 20.3837 136.005 20.4125C136.044 20.4413 136.096 20.4575 136.151 20.4575H143.793C143.848 20.4575 143.9 20.4413 143.939 20.4125C143.978 20.3837 144 20.3446 144 20.3039V19.2658C144 19.2251 143.978 19.186 143.939 19.1572C143.9 19.1284 143.848 19.1122 143.793 19.1122H138.214C138.161 19.111 138.11 19.0944 138.072 19.066C138.035 19.0376 138.014 18.9995 138.013 18.9598V16.8357C138.013 16.795 138.035 16.7559 138.074 16.7271C138.113 16.6983 138.166 16.6821 138.221 16.6821H143.676C143.704 16.6821 143.731 16.6782 143.756 16.6705C143.781 16.6627 143.804 16.6514 143.823 16.6372C143.842 16.6229 143.857 16.606 143.868 16.5873C143.878 16.5687 143.884 16.5487 143.884 16.5285V15.4893C143.884 15.4486 143.862 15.4095 143.823 15.3807C143.784 15.3519 143.731 15.3357 143.676 15.3357H138.214C138.159 15.3357 138.106 15.3195 138.068 15.2907C138.029 15.2619 138.007 15.2228 138.007 15.1821V13.2404C138.007 13.1997 138.029 13.1606 138.068 13.1318C138.106 13.103 138.159 13.0868 138.214 13.0868H138.212ZM133.844 18.5302L132.494 18.0118C132.451 17.9963 132.402 17.9931 132.356 18.0028C132.31 18.0126 132.271 18.0346 132.245 18.0646C131.948 18.4109 131.54 18.6975 131.058 18.8988C130.575 19.1002 130.034 19.2102 129.48 19.219C128.94 19.2136 128.407 19.1265 127.913 18.9631C127.42 18.7996 126.977 18.5632 126.611 18.2683C126.245 17.9735 125.964 17.6263 125.785 17.2481C125.607 16.87 125.534 16.4687 125.571 16.0689C125.531 15.6688 125.602 15.2668 125.78 14.8878C125.958 14.5089 126.239 14.161 126.605 13.8658C126.972 13.5706 127.416 13.3344 127.91 13.1717C128.405 13.009 128.939 12.9233 129.48 12.92C130.034 12.9267 130.576 13.0355 131.059 13.2366C131.542 13.4377 131.95 13.7249 132.245 14.0721C132.271 14.1025 132.311 14.1246 132.358 14.1342C132.405 14.1437 132.455 14.14 132.498 14.1237L133.836 13.5824C133.86 13.573 133.881 13.56 133.898 13.5442C133.915 13.5284 133.927 13.5102 133.934 13.4907C133.941 13.4712 133.943 13.4508 133.939 13.4309C133.934 13.411 133.925 13.3919 133.91 13.3748C133.454 12.809 132.804 12.3429 132.025 12.0242C131.247 11.7054 130.369 11.5454 129.48 11.5604C128.682 11.5457 127.889 11.6531 127.15 11.8757C126.41 12.0984 125.741 12.4315 125.182 12.8545C124.624 13.2774 124.189 13.7811 123.905 14.3341C123.62 14.8871 123.493 15.4777 123.529 16.0689C123.494 16.66 123.623 17.2501 123.908 17.8027C124.193 18.3553 124.628 18.8586 125.185 19.2814C125.743 19.7042 126.413 20.0375 127.151 20.2607C127.89 20.4838 128.683 20.5921 129.48 20.5787C130.372 20.587 131.251 20.4217 132.031 20.0993C132.809 19.7769 133.461 19.3088 133.92 18.7414C133.935 18.7241 133.946 18.7045 133.95 18.6839C133.954 18.6634 133.953 18.6424 133.945 18.6224C133.938 18.6024 133.924 18.5838 133.906 18.5679C133.888 18.552 133.866 18.5391 133.841 18.5302H133.844ZM98.6963 11.7416H96.1205C96.0646 11.7416 96.01 11.7541 95.9639 11.7774C95.9177 11.8007 95.882 11.8338 95.8616 11.8724L92.7405 17.8534L89.6032 11.8712C89.5822 11.8327 89.5462 11.7999 89.4997 11.7768C89.4533 11.7537 89.3986 11.7414 89.3427 11.7416H86.762C86.7255 11.7416 86.6906 11.7523 86.6648 11.7714C86.639 11.7906 86.6245 11.8165 86.6245 11.8436V20.3555C86.6245 20.3825 86.639 20.4085 86.6648 20.4276C86.6906 20.4467 86.7255 20.4575 86.762 20.4575H88.5418C88.5784 20.4575 88.6136 20.4468 88.6396 20.4277C88.6657 20.4086 88.6805 20.3826 88.681 20.3555V13.7276L92.2697 20.4119C92.2771 20.4254 92.2899 20.4371 92.3063 20.4452C92.3228 20.4533 92.3421 20.4576 92.3619 20.4575H93.1078C93.1275 20.4576 93.1469 20.4533 93.1633 20.4452C93.1798 20.4371 93.1925 20.4254 93.2 20.4119L96.7709 13.7276V20.3555C96.7709 20.3825 96.7854 20.4085 96.8112 20.4276C96.837 20.4467 96.8719 20.4575 96.9084 20.4575H98.6963C98.7329 20.4575 98.7681 20.4468 98.7941 20.4277C98.8202 20.4086 98.835 20.3826 98.8354 20.3555V11.8436C98.835 11.8164 98.8202 11.7905 98.7941 11.7714C98.7681 11.7523 98.7329 11.7416 98.6963 11.7416Z" fill="black"/>
</svg>
