<svg width="48" height="40" viewBox="0 0 48 40" fill="none" xmlns="http://www.w3.org/2000/svg">
<path d="M39.0662 9.07946C34.0639 13.029 29.3487 15.1707 25.0577 15.426C21.7576 15.621 18.2581 14.8492 14.6652 13.1276C11.6934 11.7046 9.40129 10.0043 8.02869 8.98999L7.88934 8.88642H7.88851H7.88934C10.3525 6.81892 13.4691 5.30111 16.9218 4.48757C16.9218 4.48626 16.9218 4.48626 16.9227 4.48593L16.9247 4.48626L16.9218 4.48757C16.5522 5.55336 16.4863 6.69519 16.7141 7.83702C17.1237 9.8847 18.4655 11.6938 20.398 12.7973C21.9082 13.6615 23.6784 14.023 25.3823 13.8119C27.0833 13.6022 28.6286 12.832 29.7283 11.645C31.1364 10.1282 31.7071 8.0838 31.297 6.03611C31.2219 5.65955 31.1135 5.28822 30.9754 4.92542L30.9758 4.9264C33.4761 5.67462 35.7891 6.76893 37.8371 8.17065C38.2606 8.46175 38.6708 8.76455 39.067 9.07847L39.0662 9.07946ZM15.4666 24.9402C14.9468 27.348 14.2354 30.6359 14.8758 35.605L14.8738 35.6024C13.18 34.929 11.5988 34.0938 10.166 33.1155C6.26391 30.4445 3.62593 26.8099 2.74145 22.8827C1.88785 19.1085 2.68722 15.2612 4.98601 12.013H4.98518L4.98643 12.0124V12.013C5.86256 12.7321 6.92059 13.5583 8.02994 14.4225C10.7451 16.5351 13.822 18.9312 15.3185 20.6347C16.1855 21.6215 15.9151 22.8699 15.4666 24.9392V24.9402ZM44.3468 9.81489C46.4528 7.86094 47.3857 6.95738 47.1833 6.46479C47.0298 6.09543 46.5396 5.76999 45.802 5.54976C45.008 5.31346 43.9204 5.20465 43.3734 5.45668C43.1911 5.54025 42.8949 5.80277 42.1823 6.43595L41.5173 7.02554H41.5144C41.0917 6.68481 40.6519 6.35747 40.196 6.04431C36.9764 3.83931 33.028 2.40252 28.7763 1.88339C27.0632 0.452498 24.8283 -0.211164 22.6292 0.059217C20.7835 0.287648 19.1568 1.15385 18.0424 2.50051C13.7214 3.53386 9.80848 5.48126 6.7099 8.14148V8.13919C6.01734 7.97663 4.49788 8.18769 3.54791 8.59703C3.00054 8.83235 2.68847 9.10568 2.61963 9.41145C2.56706 9.64316 2.6868 10.006 3.87082 11.0668L3.86999 11.0682C0.8269 14.8768 -0.492301 19.3838 0.165214 23.7626C0.838999 28.2536 3.55333 32.329 7.80757 35.2432C9.30481 36.2684 10.9677 37.134 12.7531 37.8175C15.3214 38.7994 18.1576 39.485 21.1882 39.8039C27.5522 40.4709 33.7014 39.4041 38.737 37.0962L38.7462 37.0903C39.3883 36.8104 39.6211 36.1965 39.2994 35.6276L39.2035 35.4572C37.8951 33.1539 33.9137 26.1436 36.1312 19.7475C37.0582 17.0709 39.7329 14.2203 42.0438 11.9835H42.045C44.5053 14.9849 45.7623 18.5552 45.58 22.0607C45.4073 25.3839 44.0138 28.4751 41.5331 31.0718C41.4778 31.1246 41.4418 31.1883 41.4291 31.2559C41.4164 31.3236 41.4274 31.3927 41.461 31.4559L41.7134 31.918C41.7951 32.0556 41.9795 32.148 42.1844 32.1369C42.2501 32.1332 42.3141 32.119 42.3726 32.0951C42.4311 32.0713 42.4827 32.0383 42.5244 31.9983C49.0595 25.4878 49.8426 16.5276 44.3468 9.81489Z" fill="black"/>
</svg>
