<svg width="40" height="40" viewBox="0 0 40 40" fill="none" xmlns="http://www.w3.org/2000/svg">
<path d="M16.25 27.5H17.5V28.75H16.25V27.5ZM19.376 25H20.626V26.25H19.376V25ZM19.376 15H20.626V16.25H19.376V15ZM13.75 15H15V16.25H13.75V15ZM25 15H26.25V16.25H25V15ZM16.25 13.75H17.5V15H16.25V13.75ZM22.5 13.75H23.75V15H22.5V13.75ZM19.376 18.126H20.626V19.376H19.376V18.126ZM12.5 18.126H13.75V19.376H12.5V18.126ZM13.75 21.25H15V22.5H13.75V21.25ZM25 20.626H26.25V21.876H25V20.626ZM26.25 18.126H27.5V19.376H26.25V18.126ZM16.25 16.876H17.5V18.126H16.25V16.876ZM16.25 19.376H17.5V20.626H16.25V19.376ZM6.25 23.75H7.5V25H6.25V23.75ZM8.75 20.626H10V21.876H8.75V20.626ZM10.626 23.75H11.876V25H10.626V23.75ZM8.75 27.5H10V28.75H8.75V27.5ZM32.5 23.75H33.75V25H32.5V23.75ZM30 20.626H31.25V21.876H30V20.626ZM28.126 23.75H29.376V25H28.126V23.75ZM30 27.5H31.25V28.75H30V27.5ZM22.5 16.876H23.75V18.126H22.5V16.876ZM22.5 19.376H23.75V20.626H22.5V19.376ZM21.876 27.5H23.126V28.75H21.876V27.5ZM19.376 30H20.626V31.25H19.376V30ZM13.75 32.5H15V33.75H13.75V32.5ZM16.25 32.5H17.5V33.75H16.25V32.5ZM15 35H16.25V36.25H15V35ZM11.25 36.25H12.5V37.5H11.25V36.25ZM27.5 36.25H28.75V37.5H27.5V36.25ZM18.75 35H20V36.25H18.75V35ZM26.25 32.5H27.5V33.75H26.25V32.5ZM23.75 32.5H25V33.75H23.75V32.5ZM25 35H26.25V36.25H25V35ZM21.25 33.75H22.5V35H21.25V33.75ZM20.924 0.086C20.619 0.0308724 20.3099 0.00209953 20 0C16 0 12.5 4.674 12.5 10C12.5007 11.1134 12.6528 12.2216 12.952 13.294L14.152 12.958C13.8842 11.9948 13.749 10.9997 13.75 10C13.75 5.376 16.624 1.316 19.918 1.25L19.904 1.28C19.7665 1.54738 19.619 1.80956 19.462 2.066C18.6669 3.23597 18.2539 4.62364 18.28 6.038C18.2538 7.44955 18.6676 8.83426 19.464 10C20.1441 10.9734 20.4945 12.139 20.464 13.326H21.714C21.7414 11.9124 21.3276 10.5254 20.53 9.358C19.8499 8.38462 19.4995 7.21902 19.53 6.032C19.4996 4.84375 19.85 3.67692 20.53 2.702C20.6287 2.538 20.7267 2.37 20.824 2.198L20.912 2.034C21.004 1.862 21.094 1.682 21.178 1.49L21.208 1.43C24.028 2.276 26.246 5.974 26.246 9.994C26.2466 10.9935 26.112 11.9885 25.846 12.952L27.046 13.286C27.3445 12.2161 27.4972 11.1108 27.5 10C27.5 5.084 24.612 0.728 20.924 0.086Z" fill="black"/>
<path d="M35.316 38.75L23.6 22.8C23.1968 22.2216 22.6599 21.7491 22.0348 21.4229C21.4097 21.0966 20.7151 20.9263 20.01 20.9263C19.3049 20.9263 18.6103 21.0966 17.9852 21.4229C17.3601 21.7491 16.8232 22.2216 16.42 22.8L4.684 38.75H0V40H40V38.75H35.316ZM6.236 38.75L17.436 23.522C17.725 23.1081 18.1099 22.7702 18.5578 22.5373C19.0057 22.3044 19.5033 22.1834 20.0081 22.1846C20.513 22.1857 21.01 22.3091 21.4568 22.5441C21.9037 22.7791 22.287 23.1187 22.574 23.534L33.774 38.75H6.236Z" fill="black"/>
</svg>
