<svg width="144" height="32" viewBox="0 0 144 32" fill="none" xmlns="http://www.w3.org/2000/svg">
<path d="M102.612 0C99.3058 0 97.3224 2.55952 97.3224 15.837C97.3224 30.8742 99.967 31.994 102.612 31.994C104.198 31.994 105.521 31.5141 107.901 29.2745V12.6376H102.347V15.0372H104.86V28.7946C104.378 29.2901 103.772 29.5722 103.141 29.5945C102.215 29.5945 101.554 28.9546 101.157 27.1949C100.61 23.3933 100.389 19.5336 100.496 15.6771C100.496 6.55878 101.157 2.23958 102.744 2.23958C104.066 2.23958 104.463 5.59896 104.595 8.63839L107.769 7.83854C106.975 0.639881 104.727 0 102.612 0ZM26.843 31.5141H35.4381V29.2745H29.8843V14.8772H34.3802V12.4777H29.8843V2.71949H35.4381V0.479911H26.843V31.5141Z" fill="black"/>
<path d="M40.595 0.47998L37.0248 31.5142H39.5372L40.0661 25.2754H43.7686L44.2975 31.5142H47.6033L43.9008 0.47998H40.595ZM43.5041 23.0358H40.4628V22.8758L41.7851 8.47849H42.0496L43.5041 23.0358Z" fill="black"/>
<path d="M51.438 31.5142H54.6116V2.71956H58.0496V0.47998H48V2.71956H51.438V31.5142ZM73.124 31.5142H76.2975V0.47998H73.124V12.4777H68.7603V0.47998H65.719V31.5142H68.7603V14.8773H73.124V31.5142ZM91.1074 31.5142H94.281V0.47998H91.1074V31.5142Z" fill="black"/>
<path d="M20.8925 31.514H23.9339L21.5537 14.3972H21.6859C23.2727 13.2774 23.9339 11.1978 23.9339 7.51848C23.9339 1.59959 21.8182 0.319824 18.6446 0.319824H13.8843V31.354H16.9256V15.1971H19.0413L20.8925 31.514ZM18.3801 12.7975H16.9256V2.71938H18.3801C19.9669 2.71938 20.8925 4.47905 20.8925 7.51848C20.8925 11.0378 19.9669 12.7975 18.3801 12.7975Z" fill="black"/>
<path d="M79.6033 31.5141H88.1983V29.2745H82.6446V14.8772H87.1405V12.4777H82.6446V2.71949H88.1983V0.479911H79.6033V31.5141ZM118.612 31.5141H121.785V0.479911H118.612V12.4777H114.38V0.479911H111.207V31.5141H114.38V14.8772H118.612V31.5141ZM126.942 31.5141H129.983V2.71949H133.554V0.479911H123.372V2.71949H126.942V31.5141ZM134.347 20.9561C134.215 25.7552 134.744 28.9546 136.066 30.5543C136.46 31.0408 136.935 31.4207 137.459 31.6689C137.983 31.9171 138.545 32.0279 139.107 31.994C143.471 31.994 144 27.1949 144 22.5558C144 18.0766 143.603 16.7969 141.355 14.5573L139.769 12.9576C138.05 11.1979 137.917 10.2381 137.917 7.67857C137.917 4.95908 138.05 2.39955 139.24 2.39955C139.521 2.43269 139.792 2.54205 140.033 2.71949C140.694 3.51934 140.826 6.87872 140.826 9.43824L143.868 8.63839C143.736 1.43973 142.149 0 139.24 0C136.066 0 134.744 2.23958 134.744 7.67857C134.744 12.1577 135.405 13.4375 137.388 15.5171L138.975 17.1168C140.43 18.7165 140.826 19.6763 140.826 22.8757C140.826 27.6748 140.298 29.5945 139.24 29.5945C139.088 29.5829 138.939 29.5344 138.803 29.452C138.666 29.3695 138.545 29.2548 138.446 29.1146C137.785 28.1548 137.388 24.4754 137.653 19.9963L134.347 20.9561ZM5.28926 0C1.98347 0 0 2.55952 0 15.837C0 30.7143 2.64463 31.994 5.28926 31.994C6.87603 31.994 8.19835 31.5141 10.5785 29.2745V12.6376H5.02479V15.0372H7.40496V28.7946C6.92386 29.2901 6.31748 29.5722 5.68595 29.5945C4.76033 29.5945 4.09917 28.9546 3.70248 27.1949C3.15582 23.3933 2.93426 19.5336 3.04132 15.6771C3.04132 6.55878 3.70248 2.23958 5.28926 2.23958C6.61157 2.23958 7.00826 5.59896 7.1405 8.63839L10.314 7.83854C9.65289 0.639881 7.40496 0 5.28926 0Z" fill="black"/>
</svg>
